<svg width="160" height="40" viewBox="0 0 160 40" fill="none" xmlns="http://www.w3.org/2000/svg">
  <defs>
    <linearGradient id="ordrx-grad" x1="0" y1="0" x2="160" y2="40" gradientUnits="userSpaceOnUse">
      <stop offset="0%" stop-color="#00F0FF"/>
      <stop offset="100%" stop-color="#FF00E5"/>
    </linearGradient>
  </defs>
  <!-- Mark -->
  <rect x="0" y="0" width="40" height="40" rx="10" fill="url(#ordrx-grad)"/>
  <path d="M20 10c-5.523 0-10 4.477-10 10s4.477 10 10 10 10-4.477 10-10S25.523 10 20 10zm0 2c4.418 0 8 3.582 8 8s-3.582 8-8 8-8-3.582-8-8 3.582-8 8-8z" fill="#fff"/>
  <circle cx="20" cy="20" r="4" fill="#fff"/>
  <!-- Wordmark -->
  <g fill="#111827" transform="translate(52,8)">
    <path d="M0 24V2h10.2c3.8 0 6.3 2.4 6.3 5.6 0 2.3-1.3 4.1-3.4 5 2.6.8 4.2 2.8 4.2 5.5 0 3.7-2.9 5.9-7.3 5.9H0zm5-14.2h4.7c1.7 0 2.8-.9 2.8-2.3s-1.1-2.2-2.8-2.2H5V9.8zm0 9.7h5.3c2 0 3.3-1 3.3-2.6 0-1.6-1.3-2.6-3.3-2.6H5v5.2z"/>
    <path d="M29.6 24.4c-5.3 0-9.2-3.7-9.2-9.1s3.9-9.1 9.2-9.1c5.3 0 9.2 3.7 9.2 9.1s-3.9 9.1-9.2 9.1zm0-4.5c3 0 4.9-2.2 4.9-4.6s-1.9-4.6-4.9-4.6-4.9 2.2-4.9 4.6 1.9 4.6 4.9 4.6z"/>
    <path d="M42.5 24V6.6h4.7l.2 2.3c1.1-1.7 3-2.7 5.3-2.7 3.9 0 6.7 2.9 6.7 7.3V24h-5v-9.7c0-2.4-1.5-3.9-3.7-3.9-2.4 0-3.9 1.7-3.9 4.1V24h-4.3z"/>
    <path d="M75.5 24.4c-4.8 0-8.5-3.9-8.5-9.1S70.7 6.2 75.6 6.2c2.8 0 5.2 1.2 6.7 3.3l-3.5 2.6c-.8-1.1-1.9-1.7-3.2-1.7-2.5 0-4.3 2-4.3 4.8 0 2.9 1.8 4.9 4.3 4.9 1.4 0 2.6-.6 3.4-1.8l3.6 2.5c-1.5 2.2-4 3.6-7.1 3.6z"/>
    <path d="M84.6 24l7.6-9.1-7.4-8.2h5.9l4.5 5 4.5-5h5.6l-7.2 8 7.8 8.3h-6l-4.8-5.2L90.4 24h-5.8z"/>
  </g>
</svg>
