<svg width="160" height="40" viewBox="0 0 160 40" fill="none" xmlns="http://www.w3.org/2000/svg">
  <defs>
    <linearGradient id="g" x1="0" y1="0" x2="160" y2="40" gradientUnits="userSpaceOnUse">
      <stop offset="0%" stop-color="#0066FF"/>
      <stop offset="100%" stop-color="#00C9A7"/>
    </linearGradient>
  </defs>
  <!-- Minimal O monogram -->
  <circle cx="20" cy="20" r="18" stroke="url(#g)" stroke-width="4" fill="none"/>
  <circle cx="20" cy="20" r="6" fill="url(#g)"/>

  <!-- Wordmark geometric -->
  <g transform="translate(52,7)" fill="#111827">
    <path d="M0 26V2h9.8c4.9 0 8 3 8 7.2 0 4.3-3.3 7.2-8 7.2H5.1V26H0zm5.1-13.1h4.5c2.2 0 3.6-1.3 3.6-3.7 0-2.3-1.4-3.6-3.6-3.6H5.1V12.9z"/>
    <path d="M24.5 26l6.9-19.4h5l7 19.4h-5.2l-1.4-4.1h-6l-1.3 4.1h-5zm7.7-8.1h3.8L33 10.6l-.8 2.5-2 4.8z"/>
    <path d="M46.5 26V6.6h5V26h-5z"/>
    <path d="M55.4 26V6.6h4.7l.2 2.3c1-1.7 2.8-2.7 5.2-2.7 3.9 0 6.6 2.9 6.6 7.2V26h-5v-9.7c0-2.4-1.5-3.9-3.6-3.9-2.3 0-3.8 1.7-3.8 4.1V26h-4.3z"/>
    <path d="M88.1 26.4c-4.7 0-8.3-3.8-8.3-9 0-5.2 3.6-9 8.3-9 2.7 0 5.1 1.2 6.6 3.3l-3.4 2.5c-.8-1-1.9-1.6-3.2-1.6-2.5 0-4.2 1.9-4.2 4.7s1.7 4.8 4.2 4.8c1.4 0 2.5-.6 3.3-1.8l3.5 2.4c-1.5 2.2-3.9 3.7-6.8 3.7z"/>
  </g>
</svg>
