<svg width="160" height="40" viewBox="0 0 160 40" fill="none" xmlns="http://www.w3.org/2000/svg">
  <defs>
    <linearGradient id="gc" x1="0" y1="0" x2="160" y2="40" gradientUnits="userSpaceOnUse">
      <stop offset="0%" stop-color="#8B00FF"/>
      <stop offset="100%" stop-color="#FF6B9D"/>
    </linearGradient>
  </defs>
  <!-- Hex tile with R/X negative space -->
  <path d="M20 2l14.6 8.4v18.9L20 38.6 5.4 29.3V10.4L20 2z" fill="url(#gc)"/>
  <path d="M13.5 26.5V13.5h6.5c2.3 0 3.8 1.4 3.8 3.3 0 1.3-.7 2.3-1.8 2.8l2.7 6.9h-3.8l-2.3-6h-1.8v6h-3.3zm3.3-8.7h2.9c1.1 0 1.8-.6 1.8-1.5s-.7-1.5-1.8-1.5h-2.9v3z" fill="#fff"/>

  <!-- Wordmark wide -->
  <g transform="translate(52,8)" fill="#111827">
    <path d="M0 24V2h10.3c3.9 0 6.5 2.4 6.5 5.7 0 2.4-1.4 4.3-3.6 5.2 2.7.8 4.3 2.9 4.3 5.6 0 3.8-3 6-7.5 6H0zm5-14.3h4.9c1.8 0 2.9-.9 2.9-2.4s-1.1-2.3-2.9-2.3H5V9.7zm0 9.8h5.4c2.1 0 3.4-1 3.4-2.7s-1.3-2.7-3.4-2.7H5v5.4z"/>
    <path d="M29.8 24.4c-5.4 0-9.3-3.7-9.3-9.1 0-5.4 3.9-9.1 9.3-9.1 5.4 0 9.3 3.7 9.3 9.1 0 5.4-3.9 9.1-9.3 9.1zm0-4.5c3 0 5-2.2 5-4.6 0-2.4-2-4.6-5-4.6s-5 2.2-5 4.6c0 2.4 2 4.6 5 4.6z"/>
    <path d="M42.8 24V6.6h4.8l.2 2.3c1.1-1.7 3.1-2.7 5.4-2.7 4 0 6.8 2.9 6.8 7.3V24h-5.1v-9.7c0-2.4-1.6-3.9-3.8-3.9-2.5 0-4 1.7-4 4.1V24h-4.3z"/>
    <path d="M75.9 24.4c-4.9 0-8.6-3.9-8.6-9.1S71 6.2 75.9 6.2c2.8 0 5.3 1.2 6.8 3.3l-3.6 2.6c-.8-1.1-2-1.7-3.3-1.7-2.6 0-4.4 2-4.4 4.8 0 2.9 1.8 4.9 4.4 4.9 1.4 0 2.6-.6 3.5-1.8l3.7 2.5c-1.6 2.2-4.1 3.6-7.1 3.6z"/>
    <path d="M85.2 24l7.7-9.1-7.5-8.2h6l4.6 5 4.6-5h5.8l-7.3 8 7.9 8.3h-6.1l-4.9-5.2L91 24h-5.8z"/>
  </g>
</svg>
